<?xml version="1.0" encoding="UTF-8"?>
<svg id="Capa_1" data-name="Capa 1" xmlns="http://www.w3.org/2000/svg" viewBox="0 0 1080 1080">
  <defs>
    <style>
      .cls-1 {
        fill: #af272f;
      }
    </style>
  </defs>
  <g>
    <path class="cls-1" d="M134.71,273.83c1.03,1.59,2.43,3,4.2,4.24,1.78,1.24,3.58,2.06,5.43,2.48,1.85.42,3.67.48,5.49.19,1.81-.29,3.51-.94,5.08-1.95,1.58-1.01,2.95-2.35,4.11-4.02,1.16-1.67,1.94-3.41,2.33-5.22.39-1.81.42-3.62.08-5.44-.34-1.82-1.02-3.52-2.05-5.11s-2.43-3-4.2-4.24c-1.77-1.24-3.58-2.06-5.43-2.48-1.85-.42-3.68-.47-5.5-.16-1.82.31-3.52.96-5.08,1.95-1.56.99-2.93,2.32-4.09,3.99-1.16,1.67-1.95,3.42-2.35,5.24-.4,1.83-.43,3.64-.08,5.44s1.04,3.5,2.07,5.08Z"/>
    <path class="cls-1" d="M477.42,1000.45l-8.42-1.15-2.12,15.62,8.42,1.14c3.17.43,5.67.07,7.48-1.08s2.89-2.97,3.23-5.45-.22-4.52-1.66-6.09c-1.45-1.57-3.75-2.57-6.93-3Z"/>
    <path class="cls-1" d="M430.78,995.6c-.92-1.6-2.12-2.97-3.59-4.09-1.47-1.12-3.19-1.94-5.16-2.46s-3.88-.65-5.73-.39-3.57.85-5.14,1.81c-1.57.95-2.92,2.19-4.06,3.7-1.13,1.51-1.98,3.32-2.52,5.41s-.7,4.08-.45,5.95.82,3.61,1.72,5.21c.9,1.6,2.1,2.96,3.59,4.09,1.49,1.13,3.22,1.95,5.19,2.47,1.97.51,3.87.64,5.7.39s3.55-.86,5.14-1.81c1.59-.95,2.95-2.18,4.09-3.69,1.13-1.51,1.98-3.32,2.52-5.41.55-2.09.7-4.08.45-5.95s-.83-3.62-1.75-5.22Z"/>
    <path class="cls-1" d="M552.07,76.14c1.19.5,2.63.79,4.32.86,2.64.11,5.07-.41,7.31-1.55.45-.23.88-.5,1.3-.78l-10.52-10.62c-.78.41-1.48.81-2.09,1.22-1.34.9-2.31,1.8-2.91,2.7-.6.91-.93,1.96-.98,3.17-.04,1.04.24,2,.85,2.89.61.89,1.51,1.59,2.71,2.09Z"/>
    <path class="cls-1" d="M371.56,975.05c-1.64-1.9-3.86-3.41-6.67-4.55l-8.84-3.57-10.59,26.23,8.84,3.57c2.81,1.13,5.46,1.59,7.95,1.36,2.49-.23,4.71-1.11,6.66-2.63,1.95-1.52,3.45-3.61,4.52-6.26,1.08-2.69,1.45-5.24,1.1-7.67-.35-2.43-1.34-4.59-2.98-6.49Z"/>
    <polygon class="cls-1" points="299.53 959.93 312.13 966.9 314.22 948.27 299.53 959.93"/>
    <polygon class="cls-1" points="295.93 133.77 308.38 126.53 293.45 115.18 295.93 133.77"/>
    <path class="cls-1" d="M555.79,53.24c.41.5.93,1.1,1.56,1.78.83-.4,1.57-.78,2.18-1.14,1.4-.81,2.39-1.59,2.99-2.34.59-.75.91-1.56.95-2.43.05-1.08-.3-1.99-1.02-2.74-.73-.75-1.83-1.15-3.29-1.21-1.56-.07-2.78.27-3.68,1.02-.9.74-1.37,1.72-1.42,2.93-.03.65.09,1.29.34,1.93.25.64.72,1.37,1.4,2.2Z"/>
    <polygon class="cls-1" points="848.8 180.6 859.57 190.15 865.67 172.42 848.8 180.6"/>
    <path class="cls-1" d="M921.53,273.63c.38,1.83,1.15,3.59,2.29,5.27,1.14,1.68,2.49,3.02,4.05,4.03,1.55,1.01,3.24,1.68,5.06,2.01s3.66.29,5.51-.1c1.85-.4,3.67-1.2,5.46-2.42,1.79-1.22,3.2-2.62,4.25-4.19,1.05-1.58,1.75-3.27,2.11-5.09.36-1.81.35-3.63-.02-5.44-.37-1.81-1.13-3.56-2.28-5.24-1.15-1.68-2.5-3.03-4.06-4.06-1.56-1.03-3.25-1.7-5.06-2.01-1.81-.31-3.64-.27-5.49.13-1.85.4-3.67,1.2-5.46,2.42-1.79,1.22-3.2,2.62-4.25,4.19s-1.75,3.26-2.13,5.06-.36,3.61.02,5.44Z"/>
    <path class="cls-1" d="M887.2,231.23c2.01,2.27,4.18,3.86,6.51,4.76,2.33.91,4.71,1.12,7.13.62,2.42-.5,4.7-1.69,6.84-3.58,2.17-1.92,3.64-4.04,4.41-6.37.77-2.33.85-4.71.23-7.13-.62-2.43-1.93-4.78-3.94-7.04l-6.32-7.14-21.19,18.75,6.32,7.14Z"/>
    <polygon class="cls-1" points="645.32 77.91 641.85 59.48 631.23 74.94 645.32 77.91"/>
    <path class="cls-1" d="M729.58,114.96c1.27,1.37,2.83,2.48,4.68,3.34,1.85.85,3.69,1.31,5.54,1.38,1.85.07,3.64-.23,5.37-.88s3.29-1.63,4.67-2.92c1.38-1.29,2.53-2.92,3.43-4.88.91-1.96,1.4-3.89,1.49-5.78.09-1.89-.18-3.71-.81-5.45-.63-1.74-1.56-3.29-2.82-4.66-1.25-1.36-2.8-2.47-4.65-3.32-1.85-.85-3.7-1.32-5.58-1.39-1.87-.08-3.66.22-5.37.88-1.71.66-3.26,1.64-4.64,2.93-1.38,1.29-2.53,2.92-3.43,4.88-.91,1.96-1.4,3.89-1.49,5.78-.09,1.89.17,3.7.78,5.43s1.55,3.29,2.82,4.66Z"/>
    <path class="cls-1" d="M193.35,848.7c-1.35-1.52-2.87-2.69-4.56-3.5s-3.44-1.26-5.28-1.34c-1.83-.08-3.64.2-5.43.84s-3.48,1.67-5.1,3.11c-1.61,1.44-2.84,3.01-3.67,4.71-.83,1.7-1.32,3.46-1.45,5.29-.14,1.83.1,3.63.72,5.4.62,1.77,1.6,3.41,2.96,4.93s2.86,2.68,4.53,3.48c1.67.8,3.43,1.25,5.28,1.34,1.85.09,3.66-.18,5.45-.81,1.78-.63,3.48-1.67,5.1-3.11s2.84-3.01,3.67-4.71c.83-1.7,1.31-3.47,1.43-5.32.12-1.85-.12-3.64-.72-5.4-.6-1.75-1.58-3.38-2.94-4.9Z"/>
    <path class="cls-1" d="M754.87,963.38c2.28-1.15,3.83-2.43,4.64-3.83.82-1.41.82-2.92,0-4.54s-2.03-2.51-3.64-2.67-3.55.34-5.83,1.49l-9.33,4.71,4.82,9.56,9.33-4.71Z"/>
    <path class="cls-1" d="M655.57,992.32c-1.91-.95-4.43-1.05-7.54-.32l-8.27,1.96,3.63,15.35,8.27-1.96c3.11-.74,5.31-1.97,6.59-3.69,1.28-1.73,1.63-3.81,1.06-6.25-.58-2.44-1.82-4.14-3.74-5.08Z"/>
    <path class="cls-1" d="M766.12,967.8c-1.68-.17-3.72.35-6.12,1.56l-11.01,5.55,5.06,10.02,11.01-5.55c2.39-1.21,4.03-2.54,4.89-3.99s.87-3.03.01-4.73c-.88-1.74-2.16-2.69-3.84-2.86Z"/>
    <path class="cls-1" d="M539.99,0C241.76,0,0,241.76,0,539.99s241.76,540.01,539.99,540.01,540.01-241.76,540.01-540.01S838.24,0,539.99,0ZM963.93,297.21c2.3-1.21,4.71-1.7,7.25-1.47,2.54.23,5.03,1.3,7.48,3.21,2.45,1.91,4.67,4.76,6.66,8.55,1.33,2.53,2.34,5.19,3.02,7.98.69,2.79.94,5.41.76,7.85l-8.55.76c.09-2.34-.11-4.61-.6-6.79-.49-2.19-1.2-4.16-2.13-5.92-.97-1.84-1.94-3.21-2.93-4.1-.99-.9-1.96-1.43-2.92-1.58-.96-.15-1.86,0-2.71.43-1.07.56-1.71,1.44-1.92,2.62-.21,1.18-.13,2.56.23,4.13.36,1.57.8,3.29,1.33,5.17.52,1.88.95,3.78,1.28,5.71.33,1.93.45,3.8.35,5.61-.1,1.81-.62,3.51-1.56,5.11-.95,1.6-2.45,2.94-4.52,4.03-2.26,1.19-4.66,1.65-7.18,1.4-2.53-.26-5.04-1.35-7.51-3.27-2.48-1.92-4.71-4.78-6.71-8.57-1.69-3.22-2.89-6.54-3.59-9.95-.7-3.42-.83-6.39-.4-8.92l8.67-.53c-.34,2.33-.28,4.89.19,7.67.46,2.79,1.33,5.39,2.6,7.8.97,1.84,1.94,3.22,2.91,4.15.98.93,1.92,1.49,2.84,1.7.91.2,1.79.08,2.63-.36,1.07-.56,1.7-1.43,1.89-2.61.19-1.18.12-2.57-.22-4.18-.33-1.61-.75-3.33-1.25-5.17-.5-1.84-.93-3.73-1.29-5.66-.36-1.94-.48-3.83-.35-5.68.13-1.85.67-3.55,1.64-5.11.96-1.56,2.5-2.89,4.61-4ZM539.99,955.24c-229.33,0-415.24-185.91-415.24-415.24S310.66,124.75,539.99,124.75s415.24,185.91,415.24,415.24-185.91,415.24-415.24,415.24ZM703.98,951.92l-7.79,12.77-7.44,2.7,5.05-11.77,10.19-3.69ZM939.76,246.51c3.02.67,5.86,1.91,8.52,3.74,2.66,1.83,5,4.22,7.02,7.19,2.02,2.97,3.41,6.02,4.15,9.15.75,3.13.88,6.22.39,9.27-.49,3.05-1.56,5.89-3.22,8.52-1.66,2.63-3.91,4.9-6.73,6.83-2.79,1.9-5.72,3.15-8.79,3.75-3.07.6-6.12.57-9.13-.1-3.02-.67-5.85-1.92-8.49-3.76-2.64-1.84-4.96-4.22-6.96-7.15-2.02-2.97-3.4-6.03-4.14-9.19-.74-3.16-.87-6.27-.38-9.32.48-3.05,1.56-5.89,3.22-8.52,1.66-2.63,3.89-4.89,6.68-6.79,2.82-1.92,5.75-3.18,8.79-3.75,3.04-.58,6.06-.53,9.08.13ZM915.14,207.19c3.27,3.69,5.45,7.57,6.53,11.64,1.09,4.07,1.06,8.02-.08,11.85-1.14,3.84-3.43,7.28-6.86,10.32-3.43,3.04-7.13,4.89-11.07,5.55-3.95.66-7.87.21-11.78-1.36-3.9-1.57-7.49-4.2-10.76-7.9l-13.68-15.45,34.01-30.1,13.68,15.45ZM876.48,168.11l-14.9,47.5-8.25-7.32,3.43-9.97-15.74-13.96-9.49,4.6-8.06-7.15,45.24-20.59,7.77,6.89ZM842.82,140.2l-27.07,36.48-8.49-6.3,27.07-36.48,8.49,6.3ZM769.69,130.12c.45-3.08,1.57-6.07,3.37-8.98s3.97-5.25,6.52-7.04,5.33-2.99,8.34-3.62c3.01-.63,6.09-.65,9.25-.04,3.16.6,6.23,1.83,9.21,3.67,3.35,2.07,6.03,4.52,8.04,7.36,2.01,2.84,3.24,5.95,3.69,9.33l-9.07,1.72c-.36-2.3-1.12-4.35-2.28-6.13-1.16-1.79-2.7-3.27-4.61-4.45-1.8-1.11-3.65-1.83-5.53-2.16s-3.72-.28-5.5.15c-1.79.42-3.45,1.2-4.99,2.33-1.54,1.14-2.88,2.62-4.01,4.46-1.14,1.84-1.87,3.7-2.19,5.59s-.28,3.72.15,5.5c.42,1.79,1.2,3.45,2.33,4.99s2.6,2.86,4.41,3.98c1.91,1.18,3.93,1.88,6.06,2.1,2.13.22,4.3-.03,6.52-.74l2.53,8.88c-3.23,1.11-6.57,1.41-10.02.91s-6.87-1.8-10.26-3.89c-2.98-1.84-5.45-4.04-7.41-6.59-1.96-2.56-3.32-5.31-4.08-8.28-.76-2.96-.92-5.98-.47-9.06ZM717.81,94.63c1.43-3.1,3.3-5.68,5.61-7.74,2.31-2.05,4.93-3.57,7.86-4.56,2.93-.98,6.01-1.37,9.23-1.17,3.22.2,6.46,1.05,9.72,2.56,3.26,1.5,6.01,3.41,8.26,5.71s3.95,4.88,5.11,7.75,1.69,5.86,1.62,8.96c-.08,3.11-.83,6.22-2.26,9.32-1.41,3.06-3.28,5.64-5.61,7.74s-4.95,3.63-7.88,4.62-6,1.36-9.21,1.14c-3.21-.22-6.43-1.07-9.65-2.56-3.26-1.51-6.02-3.42-8.28-5.75-2.26-2.33-3.97-4.93-5.12-7.8-1.16-2.87-1.69-5.86-1.62-8.96s.82-6.2,2.23-9.26ZM671.86,90.09c1.37,1.91,3.2,3.7,5.47,5.38,2.27,1.68,4.7,2.95,7.29,3.8,1.97.65,3.63.97,4.98.95,1.35-.01,2.42-.26,3.22-.75.8-.49,1.35-1.18,1.64-2.09.38-1.15.23-2.21-.45-3.19s-1.7-1.93-3.06-2.85c-1.36-.92-2.86-1.87-4.5-2.84-1.64-.97-3.26-2.03-4.87-3.17-1.6-1.14-3.01-2.42-4.2-3.84-1.2-1.42-1.99-3.02-2.38-4.81-.39-1.79-.21-3.82.53-6.08.81-2.47,2.21-4.5,4.19-6.1,1.98-1.6,4.52-2.57,7.61-2.89,3.09-.33,6.67.18,10.74,1.51,2.71.89,5.29,2.1,7.72,3.63,2.43,1.53,4.44,3.23,6,5.12l-5.62,6.49c-1.57-1.75-3.29-3.23-5.16-4.46-1.87-1.23-3.75-2.16-5.64-2.78-1.97-.65-3.63-.95-4.96-.91-1.33.04-2.4.34-3.2.9-.8.56-1.35,1.29-1.64,2.19-.38,1.15-.23,2.22.44,3.22.67,1,1.69,1.93,3.04,2.81,1.35.88,2.87,1.81,4.55,2.79,1.68.99,3.31,2.06,4.89,3.21,1.58,1.16,2.96,2.42,4.15,3.79,1.19,1.37,2,2.96,2.43,4.76.43,1.8.28,3.82-.45,6.03-.8,2.43-2.2,4.42-4.19,6-2,1.57-4.56,2.53-7.67,2.87-3.12.34-6.71-.16-10.78-1.49-3.45-1.13-6.62-2.69-9.5-4.66-2.88-1.97-5.05-4.02-6.49-6.13l5.86-6.41ZM638.95,48.25l10.16,2.14,10.55,48.65-10.79-2.28-1.95-10.36-20.59-4.35-5.97,8.69-10.54-2.23,29.13-40.27ZM538.55,71.78c.09-2.25.68-4.26,1.75-6.03,1.07-1.77,2.72-3.39,4.94-4.86,1.15-.76,2.47-1.5,3.95-2.24-.77-.86-1.45-1.69-2-2.49-.86-1.25-1.49-2.48-1.89-3.68-.4-1.21-.58-2.42-.53-3.63.09-2.2.77-4.12,2.03-5.76,1.26-1.64,2.98-2.87,5.16-3.71,2.18-.84,4.65-1.2,7.42-1.09,2.68.11,4.96.63,6.85,1.55,1.89.92,3.35,2.19,4.39,3.79,1.04,1.6,1.51,3.48,1.42,5.64-.08,1.86-.63,3.57-1.64,5.13-1.02,1.56-2.57,2.99-4.66,4.29-.92.57-1.97,1.14-3.12,1.71l8.02,8.05c1.11-1.99,1.98-4.3,2.58-6.92l8,2.8c-.93,3.89-2.47,7.27-4.55,10.18l5.08,5.1-5.71,6.19-5.25-5.3c-1.22.87-2.51,1.62-3.88,2.26-3.51,1.63-7.36,2.36-11.55,2.18-3.29-.14-6.21-.8-8.78-1.99-2.57-1.19-4.57-2.75-6.01-4.67-1.44-1.92-2.1-4.09-2-6.51ZM464.41,44.02l25.86,24.51-3.46-27.34,10.3-1.3,5.7,45.06-8.63,1.09-25.86-24.51,3.46,27.34-10.3,1.3-5.7-45.06,8.63-1.09ZM436.9,49.09l9.77,44.36-10.33,2.27-9.77-44.36,10.33-2.27ZM412.95,54.34l2.49,8.2-13.91,4.23,10.71,35.26-10.06,3.06-10.71-35.27-13.91,4.23-2.49-8.2,37.87-11.51ZM330.98,83.85l31.63,16.4-10.88-25.32,9.54-4.1,17.94,41.73-7.99,3.43-31.63-16.4,10.88,25.32-9.54,4.1-17.94-41.73,7.99-3.43ZM292.75,103.57l40.44,29.03-9.54,5.54-8.39-6.38-18.19,10.57,1.39,10.45-9.31,5.41-5.38-49.41,8.98-5.22ZM261.24,122.59l5.04,6.93-11.75,8.55,21.69,29.8-8.5,6.18-21.69-29.8-11.75,8.55-5.04-6.93,32.01-23.29ZM200.89,171.96c1.27-2.83,3.51-5.67,6.71-8.52,2.14-1.89,4.48-3.51,7.02-4.85,2.55-1.33,5.03-2.2,7.44-2.61l2.78,8.12c-2.3.48-4.45,1.21-6.45,2.21-2.01,1-3.75,2.16-5.24,3.48-1.55,1.38-2.65,2.65-3.28,3.83-.64,1.17-.92,2.24-.83,3.21.08.97.44,1.81,1.07,2.52.8.91,1.81,1.32,3.01,1.24,1.2-.08,2.52-.49,3.96-1.21,1.44-.73,3-1.57,4.7-2.52,1.7-.96,3.44-1.82,5.23-2.61,1.79-.78,3.58-1.34,5.36-1.68,1.78-.34,3.56-.24,5.34.29,1.78.53,3.44,1.68,4.99,3.42,1.69,1.91,2.72,4.12,3.07,6.64.35,2.52-.1,5.21-1.38,8.08-1.27,2.86-3.51,5.72-6.72,8.56-2.72,2.41-5.65,4.37-8.81,5.86-3.15,1.5-6.01,2.34-8.56,2.52l-2.58-8.29c2.34-.23,4.81-.9,7.41-2.02,2.59-1.12,4.91-2.58,6.95-4.39,1.55-1.38,2.66-2.65,3.33-3.82.67-1.17.99-2.22.97-3.16s-.35-1.76-.98-2.47c-.8-.91-1.8-1.31-2.98-1.21-1.19.1-2.52.5-4,1.21-1.48.71-3.06,1.53-4.72,2.45-1.66.93-3.39,1.8-5.19,2.61s-3.61,1.38-5.43,1.7c-1.83.32-3.61.2-5.36-.37-1.74-.56-3.4-1.73-4.98-3.51-1.72-1.94-2.78-4.17-3.16-6.69-.39-2.52.06-5.2,1.33-8.03ZM159.43,213.17l35.59,1.69-20.46-18.46,6.95-7.71,33.72,30.43-5.83,6.46-35.59-1.69,20.46,18.46-6.95,7.71-33.72-30.43,5.83-6.46ZM123.55,262.09c.76-3.13,2.17-6.17,4.22-9.12s4.41-5.32,7.07-7.13c2.66-1.81,5.5-3.03,8.53-3.66,3.03-.63,6.06-.64,9.11-.02,3.05.62,5.97,1.91,8.77,3.87,2.77,1.93,4.98,4.22,6.63,6.88,1.65,2.66,2.71,5.52,3.16,8.57s.29,6.15-.49,9.27c-.78,3.12-2.19,6.14-4.21,9.05-2.05,2.95-4.43,5.33-7.12,7.14-2.69,1.82-5.55,3.04-8.57,3.67-3.02.63-6.06.64-9.11.01-3.05-.62-5.95-1.9-8.72-3.83-2.8-1.95-5.01-4.25-6.63-6.88s-2.65-5.48-3.11-8.54c-.45-3.06-.3-6.15.47-9.29ZM95.24,310.04c.41-3.19,1.43-6.33,3.09-9.42,1.85-3.47,4.14-6.3,6.85-8.48s5.74-3.6,9.09-4.27l2.28,8.95c-2.28.5-4.27,1.38-5.98,2.65-1.71,1.27-3.09,2.9-4.15,4.88-1,1.87-1.6,3.75-1.81,5.65-.21,1.9-.04,3.73.49,5.49.53,1.76,1.41,3.37,2.64,4.83,1.23,1.47,2.8,2.71,4.7,3.73,1.91,1.02,3.81,1.63,5.71,1.84,1.9.21,3.73.04,5.49-.49,1.76-.53,3.37-1.41,4.83-2.64,1.46-1.23,2.7-2.78,3.7-4.65,1.06-1.98,1.63-4.04,1.72-6.18.09-2.14-.29-4.29-1.15-6.46l8.7-3.07c1.31,3.15,1.82,6.46,1.53,9.94-.29,3.48-1.37,6.97-3.24,10.48-1.65,3.09-3.69,5.69-6.12,7.8-2.43,2.11-5.1,3.64-8.01,4.59-2.91.95-5.91,1.29-9.01,1.03s-6.16-1.19-9.17-2.8c-3.01-1.61-5.49-3.63-7.43-6.07-1.94-2.43-3.31-5.13-4.13-8.1-.82-2.96-1.03-6.04-.62-9.23ZM56.23,539.99c0-61.41,11.35-121.24,33.74-177.85l9.28,3.67c-21.93,55.43-33.04,114.03-33.04,174.18,0,80.77,20.68,160.52,59.8,230.61l-8.72,4.87c-39.95-71.57-61.07-153-61.07-235.47ZM152.2,802.62c-1.81-.32-3.64-.26-5.5.17-1.86.43-3.68,1.27-5.45,2.51-1.77,1.24-3.18,2.66-4.23,4.26-1.05,1.6-1.73,3.3-2.05,5.11s-.27,3.64.17,5.5c.43,1.86,1.25,3.66,2.47,5.4,1.29,1.84,2.86,3.29,4.73,4.33,1.86,1.04,3.96,1.68,6.28,1.9l-1.2,9.15c-3.4-.26-6.59-1.31-9.56-3.14s-5.59-4.38-7.87-7.64c-2.01-2.87-3.4-5.87-4.19-8.99-.78-3.12-.94-6.19-.47-9.22.47-3.02,1.53-5.86,3.16-8.5,1.63-2.65,3.85-4.95,6.65-6.91,2.8-1.96,5.73-3.25,8.77-3.88s6.08-.63,9.09-.02,5.85,1.82,8.51,3.63c2.66,1.81,5,4.15,7,7.02,2.25,3.23,3.74,6.54,4.46,9.95.72,3.4.61,6.75-.31,10.03l-9.01-2.01c.59-2.26.7-4.44.34-6.53-.36-2.1-1.18-4.07-2.47-5.91-1.21-1.74-2.62-3.13-4.22-4.17-1.6-1.05-3.3-1.73-5.11-2.05ZM181.68,882.91c-3.08-.27-6.05-1.15-8.9-2.63-2.86-1.48-5.46-3.55-7.82-6.19-2.39-2.68-4.16-5.54-5.3-8.58-1.14-3.04-1.67-6.1-1.59-9.19.09-3.09.78-6.05,2.09-8.87s3.23-5.35,5.75-7.6c2.55-2.27,5.29-3.89,8.23-4.86s5.94-1.31,9.02-1.04c3.08.27,6.05,1.14,8.93,2.61,2.87,1.47,5.5,3.54,7.89,6.22,2.39,2.68,4.15,5.52,5.3,8.53,1.14,3.01,1.67,6.06,1.59,9.15-.09,3.09-.78,6.04-2.09,8.86s-3.24,5.37-5.79,7.64c-2.52,2.24-5.26,3.86-8.23,4.86-2.97.99-5.99,1.36-9.07,1.09ZM219.31,925.75l1.13-35.61-18.13,20.75-7.82-6.83,29.89-34.2,6.55,5.72-1.13,35.61,18.13-20.75,7.82,6.83-29.89,34.2-6.55-5.72ZM249.37,948.76l21.07-30.24-11.93-8.31,4.9-7.03,32.48,22.62-4.9,7.03-11.93-8.31-21.07,30.24-8.63-6.01ZM319.64,991.31l-9.65-5.34,1.18-10.48-18.41-10.2-8.26,6.55-9.42-5.22,39.66-29.96,9.08,5.03-4.19,49.61ZM383.3,993.19c-1.72,4.25-4.2,7.56-7.43,9.91-3.24,2.36-6.95,3.7-11.15,4.04s-8.58-.42-13.15-2.27l-19.13-7.73,17.01-42.12,19.13,7.73c4.57,1.85,8.25,4.35,11.04,7.5,2.78,3.16,4.52,6.7,5.22,10.65.69,3.94.18,8.04-1.54,12.29ZM442.37,1009.47c-.85,3.26-2.24,6.13-4.17,8.6s-4.24,4.45-6.95,5.93-5.67,2.39-8.87,2.74-6.51.07-9.95-.83c-3.47-.91-6.53-2.31-9.16-4.21-2.63-1.9-4.77-4.16-6.41-6.78s-2.69-5.47-3.16-8.54-.28-6.24.58-9.51c.87-3.31,2.25-6.17,4.17-8.6,1.91-2.43,4.22-4.38,6.94-5.86,2.71-1.48,5.67-2.41,8.88-2.77,3.2-.37,6.54-.1,10.02.81,3.47.91,6.52,2.3,9.14,4.17,2.62,1.87,4.75,4.12,6.39,6.74,1.64,2.62,2.69,5.47,3.16,8.54.47,3.07.27,6.27-.6,9.57ZM496.49,1010.96c-.46,3.39-1.65,6.18-3.56,8.39-1.92,2.21-4.42,3.74-7.5,4.61-.02,0-.05,0-.07.01l8.06,15.84-11.19-1.52-7.03-13.81c-.15-.02-.3-.02-.45-.04l-9-1.22-1.71,12.6-10.48-1.42,6.12-45.01,19.48,2.65c4.03.55,7.41,1.67,10.15,3.38,2.74,1.7,4.73,3.88,5.99,6.54s1.65,5.66,1.2,9ZM542.09,1014.52l-.22,8.24-21.08-.57-.28,10.51,24.71.67-.23,8.43-35.16-.95,1.23-45.41,34.31.93-.23,8.43-23.87-.64-.26,9.79,21.08.57ZM593.68,1032.59c-1.25,2.22-3.25,4.08-6,5.58-2.75,1.5-6.26,2.41-10.53,2.73-3.62.27-7.14.04-10.56-.68-3.42-.72-6.19-1.79-8.34-3.19l2.98-8.16c2,1.24,4.37,2.2,7.11,2.89,2.74.69,5.47.93,8.19.73,2.07-.15,3.73-.49,4.97-1.02,1.24-.52,2.14-1.17,2.69-1.92.55-.76.79-1.61.72-2.56-.09-1.21-.63-2.13-1.64-2.77-1-.64-2.31-1.13-3.91-1.47-1.61-.34-3.35-.64-5.24-.92-1.89-.27-3.79-.63-5.71-1.07-1.92-.44-3.7-1.09-5.35-1.95-1.65-.85-2.99-2.03-4.03-3.54-1.04-1.51-1.65-3.45-1.83-5.82-.19-2.59.33-5,1.55-7.24,1.22-2.24,3.2-4.1,5.93-5.58,2.73-1.48,6.23-2.38,10.5-2.69,2.85-.21,5.69-.07,8.52.41,2.83.49,5.33,1.3,7.5,2.44l-2.72,8.14c-2.11-1.02-4.27-1.73-6.47-2.16-2.2-.42-4.29-.56-6.28-.42-2.07.15-3.72.5-4.93,1.05-1.22.55-2.09,1.23-2.61,2.05-.53.82-.75,1.7-.68,2.65.09,1.21.63,2.14,1.64,2.81,1,.66,2.3,1.14,3.88,1.44,1.58.3,3.34.58,5.27.85,1.93.27,3.84.64,5.74,1.11,1.9.47,3.66,1.11,5.28,1.92,1.62.81,2.98,1.97,4.06,3.47,1.09,1.5,1.72,3.42,1.89,5.75.19,2.55-.34,4.93-1.59,7.14ZM669.28,1004.08c-1,2.75-2.77,5.11-5.32,7.09-2.55,1.98-5.81,3.44-9.77,4.38l-8.84,2.09,2.88,12.19-10.29,2.43-10.45-44.2,19.13-4.52c3.96-.94,7.52-1.1,10.69-.49,3.17.61,5.81,1.93,7.94,3.96,2.12,2.03,3.58,4.69,4.35,7.97.79,3.33.68,6.36-.31,9.11ZM723.56,1002.11c-2.19,4.61-6.3,8.01-12.32,10.2-6.06,2.2-11.41,2.23-16.05.09-4.64-2.14-8.1-6.36-10.39-12.66l-8.65-23.85,9.94-3.61,8.56,23.61c1.46,4.03,3.35,6.64,5.68,7.85,2.32,1.21,4.97,1.27,7.94.19,3.01-1.09,5.02-2.84,6.03-5.26s.79-5.63-.67-9.66l-8.56-23.61,9.7-3.52,8.65,23.85c2.29,6.3,2.33,11.76.14,16.38ZM779.9,977.1c-1.76,3.33-5.3,6.35-10.63,9.03l-20.97,10.58-20.47-40.55,19.81-10c5.1-2.57,9.42-3.54,12.96-2.91,3.54.63,6.11,2.54,7.71,5.7,1.07,2.12,1.48,4.23,1.23,6.32-.23,1.88-.95,3.62-2.1,5.25.43-.06.87-.13,1.3-.15,2.38-.13,4.54.33,6.48,1.38,1.94,1.06,3.5,2.76,4.69,5.12,1.75,3.48,1.75,6.88,0,10.22ZM799.94,969.17l-24.66-38.15,8.88-5.74,20.01,30.95,19.02-12.29,4.65,7.19-27.9,18.04ZM839.18,942.53l-27.5-36.15,8.42-6.4,27.5,36.15-8.42,6.4ZM885.91,901.56c-1.45,3.17-3.64,6.1-6.6,8.77-2.6,2.35-5.4,4.11-8.4,5.28-3,1.17-6.03,1.7-9.08,1.61s-6-.78-8.83-2.07-5.39-3.2-7.68-5.74c-2.29-2.53-3.94-5.27-4.94-8.22-1-2.94-1.39-5.95-1.16-9.02.23-3.07,1.07-6.03,2.54-8.9,1.46-2.87,3.49-5.48,6.09-7.83,2.92-2.64,6.02-4.53,9.31-5.67,3.29-1.14,6.62-1.45,9.99-.95l-.87,9.19c-2.31-.3-4.49-.14-6.52.48-2.04.62-3.89,1.68-5.56,3.19-1.57,1.42-2.78,2.99-3.61,4.71s-1.3,3.5-1.39,5.33c-.09,1.83.19,3.65.85,5.44.66,1.8,1.72,3.49,3.17,5.1,1.45,1.6,3.04,2.82,4.76,3.66,1.72.84,3.5,1.3,5.33,1.39s3.65-.19,5.44-.85c1.79-.66,3.48-1.7,5.05-3.12,1.67-1.51,2.9-3.25,3.71-5.24.8-1.98,1.17-4.14,1.11-6.47l9.23.05c.17,3.41-.47,6.7-1.92,9.87ZM923.69,861.6c-1.12,3.02-2.84,5.86-5.17,8.54-2.36,2.71-4.98,4.81-7.85,6.33s-5.85,2.42-8.92,2.72c-3.08.3-6.1-.02-9.06-.97s-5.71-2.53-8.25-4.75c-2.57-2.25-4.52-4.77-5.85-7.56-1.32-2.79-2.04-5.73-2.16-8.82-.12-3.09.37-6.15,1.47-9.18s2.83-5.9,5.19-8.61c2.36-2.7,4.96-4.81,7.8-6.32,2.84-1.51,5.8-2.42,8.88-2.72,3.08-.3,6.1.02,9.06.97,2.96.95,5.73,2.55,8.3,4.79,2.54,2.22,4.49,4.74,5.85,7.56,1.36,2.82,2.09,5.78,2.21,8.86.12,3.09-.38,6.14-1.5,9.16ZM957.89,815.39c-.55,3.09-2.05,6.39-4.48,9.92-2.07,2.99-4.45,5.59-7.16,7.79-2.71,2.21-5.28,3.7-7.71,4.49l-4.49-7.43c2.22-.78,4.46-2.02,6.71-3.73,2.25-1.7,4.16-3.68,5.7-5.92,1.18-1.71,1.95-3.21,2.32-4.51s.43-2.4.19-3.3c-.24-.9-.76-1.63-1.54-2.17-1-.69-2.06-.84-3.19-.47-1.13.38-2.33,1.09-3.6,2.13-1.27,1.04-2.6,2.21-4,3.51-1.4,1.3-2.87,2.55-4.42,3.77-1.55,1.22-3.17,2.2-4.87,2.94-1.7.75-3.46,1.05-5.29.92-1.83-.13-3.72-.87-5.68-2.23-2.14-1.47-3.69-3.39-4.67-5.75-.98-2.36-1.18-5.06-.62-8.12.56-3.06,2.06-6.35,4.49-9.87,1.62-2.35,3.51-4.47,5.67-6.38,2.16-1.9,4.36-3.34,6.6-4.31l4.63,7.22c-2.12,1.01-4.03,2.24-5.74,3.69-1.71,1.45-3.13,2.99-4.26,4.63-1.18,1.71-1.94,3.21-2.28,4.5-.34,1.29-.35,2.4-.05,3.32.31.92.86,1.66,1.64,2.2,1,.69,2.07.85,3.21.48,1.15-.36,2.33-1.07,3.55-2.12,1.22-1.05,2.54-2.24,3.96-3.57,1.42-1.33,2.91-2.59,4.46-3.78,1.56-1.19,3.16-2.16,4.81-2.91,1.65-.75,3.4-1.08,5.25-.98,1.85.1,3.74.81,5.66,2.14,2.1,1.45,3.62,3.36,4.57,5.72.95,2.36,1.14,5.09.59,8.17ZM953.98,770.6c39.12-70.09,59.8-149.83,59.8-230.61,0-60.15-11.12-118.75-33.04-174.18l9.28-3.67c22.39,56.6,33.74,116.44,33.74,177.85,0,82.47-21.12,163.9-61.07,235.47l-8.72-4.87Z"/>
    <path class="cls-1" d="M913.85,848.7c-.85-1.69-2.09-3.25-3.72-4.67-1.63-1.42-3.34-2.44-5.13-3.06s-3.61-.87-5.45-.76-3.6.57-5.26,1.39c-1.66.82-3.16,1.99-4.5,3.52-1.34,1.53-2.31,3.18-2.91,4.96s-.82,3.57-.67,5.4c.16,1.83.66,3.59,1.51,5.28.85,1.69,2.09,3.25,3.72,4.67,1.63,1.42,3.34,2.44,5.13,3.06,1.79.61,3.6.87,5.43.78,1.83-.09,3.59-.56,5.26-1.39,1.68-.83,3.18-2.02,4.52-3.55,1.34-1.53,2.3-3.18,2.89-4.93.58-1.76.81-3.56.67-5.4-.14-1.85-.63-3.61-1.49-5.3Z"/>
  </g>
  <g>
    <path class="cls-1" d="M905.5,538.37c0-97.71-38-189.52-106.99-258.51-6.63-6.63-13.46-12.95-20.5-19.01v-19.75l-2.68-1.52c-5.74-3.24-11.64-6.41-17.62-9.46l.05-.05-6.43-3.16c-.07-.04-.14-.07-.21-.1l-3.39-1.67-.02.02c-65-31.35-134.86-47.26-207.7-47.26s-142.68,15.9-207.7,47.24l-.02-.02-3.39,1.67-6.63,3.26.05.05c-6.01,3.07-11.92,6.25-17.63,9.47l-2.68,1.52v19.75c-7.04,6.05-13.88,12.38-20.5,19.01-69,69-106.98,160.8-106.98,258.51s37.99,189.52,106.98,258.51c38.16,38.16,83.3,66.84,132.54,84.83v-13.56c-8.51-3.26-16.86-6.85-25.03-10.73l41.34-83.5-9.91-3.57,35.58,12.78-16.52,52.19h13.09l15.17-47.97,26.04,9.36-5.96,38.61h12.62l5.3-34.32,28.01,10.06v24.26h12.48v-24.26l28.01-10.06,5.3,34.32h12.62l-5.96-38.61,34.32-12.33-8.27,2.98,15.17,47.96h13.1l-16.52-52.19,25.66-9.21,38.63-13.88,49.6,70.52c-11.44,7.77-23.37,14.89-35.71,21.3l-40.69-82.19-11.83,4.24,41.34,83.5c-8.17,3.89-16.52,7.47-25.03,10.73v-32.83h-251.94v73.22h251.94v-26.83c49.24-17.99,94.38-46.67,132.54-84.83,69-69,106.99-160.8,106.99-258.51ZM464.6,887.92h-25.07v-32.38h24.47v6.01h-17.02v6.98h15.03v5.88h-15.03v7.49h17.62v6.01ZM493.44,883.43c-1,1.51-2.52,2.73-4.56,3.65s-4.58,1.39-7.63,1.39c-2.59,0-5.08-.35-7.47-1.04-2.39-.69-4.31-1.6-5.76-2.71l2.54-5.64c1.36.99,2.99,1.8,4.9,2.43,1.91.63,3.84.95,5.78.95,1.48,0,2.67-.15,3.59-.46.91-.31,1.58-.72,2.01-1.23.43-.51.65-1.1.65-1.78,0-.86-.34-1.55-1.02-2.06-.68-.51-1.58-.92-2.71-1.25-1.13-.32-2.35-.63-3.68-.93-1.33-.29-2.66-.65-4-1.06-1.34-.42-2.57-.97-3.7-1.66-1.13-.69-2.02-1.6-2.68-2.73s-.99-2.54-.99-4.23c0-1.85.49-3.54,1.48-5.07.99-1.53,2.49-2.74,4.51-3.65,2.02-.91,4.56-1.36,7.61-1.36,2.04,0,4.05.25,6.04.74,1.99.49,3.72,1.2,5.2,2.13l-2.36,5.64c-1.45-.83-2.95-1.46-4.49-1.87-1.54-.42-3.02-.62-4.44-.62s-2.67.16-3.56.49c-.9.32-1.55.76-1.97,1.32-.42.55-.63,1.17-.63,1.85,0,.86.34,1.56,1.02,2.08.68.53,1.57.93,2.68,1.23,1.11.29,2.34.59,3.7.88,1.36.29,2.7.66,4.02,1.09,1.33.43,2.54.98,3.65,1.64s2.01,1.56,2.71,2.68c.69,1.13,1.04,2.52,1.04,4.19,0,1.82-.5,3.49-1.5,5ZM524.18,861.65h-10.36v26.27h-7.49v-26.27h-10.36v-6.11h28.21v6.11ZM532.09,887.02c-.86.85-1.93,1.27-3.19,1.27s-2.29-.42-3.17-1.27-1.32-1.92-1.32-3.21.44-2.45,1.32-3.28,1.94-1.25,3.17-1.25,2.33.42,3.19,1.25,1.3,1.93,1.3,3.28-.43,2.37-1.3,3.21ZM562.33,887.92h-7.49v-26.37h-6.48v-6.01h13.97v32.38ZM591.73,880.52c-1.4,2.59-3.34,4.56-5.81,5.92-2.47,1.36-5.34,2.04-8.6,2.04-1.7,0-3.33-.19-4.9-.58-1.57-.39-2.93-.93-4.07-1.64l2.73-5.5c.89.62,1.86,1.04,2.89,1.27,1.03.23,2.1.35,3.21.35,2.77,0,4.99-.86,6.64-2.57,1.54-1.59,2.35-3.88,2.45-6.85-.14.14-.29.29-.44.42-.96.82-2.07,1.43-3.33,1.85-1.26.42-2.68.62-4.26.62-2.07,0-3.94-.42-5.62-1.25-1.68-.83-3.02-2-4.02-3.52-1-1.51-1.5-3.28-1.5-5.32,0-2.19.55-4.09,1.64-5.71,1.09-1.62,2.57-2.87,4.44-3.75s3.92-1.32,6.17-1.32c2.99,0,5.57.61,7.75,1.83,2.17,1.22,3.84,3.02,5,5.41,1.16,2.39,1.74,5.31,1.74,8.77,0,3.76-.7,6.94-2.1,9.53ZM622.81,883.83c-1.13,1.5-2.71,2.64-4.76,3.45-2.05.8-4.45,1.2-7.19,1.2s-5.13-.4-7.15-1.2c-2.02-.8-3.6-1.95-4.74-3.45-1.14-1.5-1.71-3.26-1.71-5.3s.56-3.7,1.67-5.09c.83-1.04,1.92-1.89,3.27-2.56-.88-.55-1.63-1.19-2.23-1.95-1.03-1.31-1.55-2.89-1.55-4.74s.52-3.51,1.57-4.88c1.05-1.37,2.51-2.43,4.39-3.19,1.88-.76,4.04-1.13,6.48-1.13s4.68.38,6.54,1.13c1.87.76,3.32,1.82,4.37,3.19,1.05,1.37,1.57,3,1.57,4.88s-.51,3.43-1.53,4.74c-.6.77-1.36,1.42-2.25,1.97,1.33.68,2.41,1.53,3.25,2.57,1.13,1.4,1.69,3.09,1.69,5.06s-.56,3.8-1.69,5.3ZM640.46,887.92h-7.49v-26.37h-6.48v-6.01h13.97v32.38ZM778,277.93c7.36,6.74,14.45,13.76,21.21,21.08l-21.21,18.89v-39.97ZM778,334.61l29.52-26.31c9.03,10.49,17.48,21.53,25.24,33.03l-54.77,35.46v-42.19ZM778,391.67l61.56-39.86c7.33,11.73,13.99,23.91,19.93,36.5l-81.49,36.53v-33.17ZM778,438.52l86.62-38.83c5.43,12.69,10.15,25.76,14.09,39.15l-100.7,27.67v-27.98ZM778,479.43l104.02-28.59c3.42,13.34,6.05,26.97,7.9,40.84l-111.92,12.93v-25.18ZM778,517.18l113.34-13.09c1.09,11.28,1.67,22.71,1.67,34.28,0,2.43-.05,4.87-.1,7.29l-114.92-4.41v-24.07ZM778,553.73l114.44,4.39c-.77,14-2.36,27.8-4.73,41.33l-109.71-21.28v-24.45ZM778,590.88l107.33,20.81c-2.9,13.68-6.58,27.08-11.02,40.12l-96.31-34.59v-26.34ZM778,630.48l92.07,33.07c-4.97,13.03-10.67,25.69-17.07,37.94l-75-40.78v-30.22ZM778,685.83v-10.93l69.02,37.54c-6.88,12.08-14.45,23.71-22.65,34.85l-50.99-38.87c3.02-7.13,4.62-14.77,4.62-22.59ZM524.74,273.8l3.18-9.81,12.07-37.15,12.08,37.15,3.18,9.81h49.38l-31.61,22.96-8.34,6.05,3.18,9.81,12.07,37.15-31.61-22.96-8.34-6.05-8.34,6.05-31.61,22.96,12.08-37.15,3.18-9.81-8.34-6.05-31.61-22.96h49.38ZM301.99,277.93v39.98l-21.21-18.91c6.78-7.31,13.86-14.34,21.21-21.08ZM272.46,308.3l29.52,26.32v42.18l-54.77-35.46c7.77-11.51,16.21-22.54,25.24-33.03ZM240.43,351.81l61.56,39.86v33.17l-81.47-36.53c5.93-12.59,12.59-24.77,19.92-36.5ZM215.38,399.68l86.6,38.82v27.99l-100.69-27.67c3.94-13.39,8.65-26.45,14.09-39.15ZM197.96,450.85l104.02,28.59v25.18l-111.92-12.93c1.85-13.88,4.48-27.5,7.9-40.84ZM186.98,538.37c0-11.57.57-23,1.66-34.28l113.34,13.09v24.07l-114.92,4.41c-.05-2.42-.09-4.85-.09-7.29ZM187.54,558.13l114.44-4.39v24.45l-109.71,21.28c-2.36-13.53-3.96-27.33-4.73-41.33ZM194.66,611.7l107.33-20.81v26.34l-96.31,34.59c-4.44-13.04-8.11-26.44-11.02-40.12ZM209.93,663.55l92.06-33.07v30.22l-75,40.78c-6.4-12.24-12.1-24.91-17.06-37.94ZM232.97,712.44l69.02-37.54v10.93c0,7.81,1.61,15.47,4.63,22.6l-50.99,38.86c-8.21-11.14-15.79-22.77-22.66-34.85ZM263.19,757.21l49.54-37.77c2.08,2.98,4.43,5.8,7.05,8.44l-.19.19,4.43,3.72h.01l3.69,3.09.15-.14c5,3.59,10.57,6.51,16.46,8.67-2.56-.87-5.04-1.88-7.41-3.03l-46.07,47.87c-9.81-9.8-19.04-20.15-27.67-31.03ZM299.86,796.88l49.8-51.76c.67.19,1.34.37,2,.55l27.85,10-47.61,67.7c-11.19-8.21-21.9-17.05-32.05-26.48ZM377.81,851.86c-12.34-6.41-24.27-13.53-35.7-21.3l49.6-70.52,26.79,9.62-40.69,82.2ZM535.4,811.66l2.81,1,1.78.65-4.59-1.65ZM555.26,697.4l-3.18,9.8-12.08,37.16-12.07-37.16-3.18-9.8h-49.38l31.61-22.96,8.34-6.06-3.18-9.8-12.08-37.16,31.61,22.97,8.34,6.05,8.34-6.05,31.61-22.97-12.07,37.16-3.18,9.8,8.34,6.06,31.61,22.96h-49.38ZM579.89,547.53l-39.88-39.88h-.01l-176.39,176.4-36.35,36.35c-9.4-9.4-14.69-21.75-14.69-34.57v-10.59l197.51-197.51-120.33-120.33-77.18-77.18v-32.93c5.72-3.17,11.61-6.29,17.6-9.3l209.83,209.83h.01l65.56-65.58,144.25-144.25c5.96,2.99,11.85,6.1,17.61,9.3v32.93l-61.73,61.73-135.78,135.78,197.51,197.51v10.59c0,12.8-5.3,25.16-14.69,34.55l-172.86-172.86ZM360.74,454.9l-7.1-38.41,28.33,26.9,7.47,7.09,9.06-4.9,34.34-18.63-16.83,35.25-4.44,9.3,7.47,7.1,28.33,26.9-38.73-5.12-10.22-1.35-4.44,9.3-16.83,35.25-7.1-38.41-1.87-10.13-10.22-1.35-38.73-5.12,34.34-18.63,9.06-4.92-1.87-10.13ZM664.01,462.2l-16.83-35.25,34.34,18.63,9.06,4.9,7.46-7.09,28.33-26.9-7.1,38.41-1.87,10.13,9.06,4.92,34.34,18.63-38.73,5.12-10.22,1.35-1.87,10.13-7.1,38.41-16.83-35.25-4.44-9.3-10.22,1.35-38.72,5.12,28.33-26.9,7.47-7.1-4.44-9.3ZM748.08,823.36l-47.61-67.68,27.85-10.01c.67-.16,1.34-.36,2-.55l49.8,51.76c-10.15,9.43-20.84,18.27-32.05,26.48ZM743.06,740.38c-2.4,1.17-4.9,2.18-7.49,3.07,5.93-2.17,11.52-5.1,16.55-8.72l.15.15,3.71-3.11h.01s4.42-3.72,4.42-3.72l-.19-.19c2.61-2.62,4.95-5.44,7.03-8.41l49.55,37.76c-8.62,10.88-17.86,21.24-27.67,31.03l-46.07-47.87Z"/>
    <path class="cls-1" d="M582.9,861.21c-.85-.42-1.87-.62-3.08-.62-1.08,0-2.03.19-2.84.58-.82.39-1.45.94-1.9,1.67-.45.73-.67,1.58-.67,2.57,0,1.48.5,2.66,1.5,3.54,1,.88,2.34,1.32,4,1.32,1.11,0,2.08-.22,2.91-.65.83-.43,1.48-1.01,1.94-1.73.46-.72.69-1.56.69-2.52,0-.89-.22-1.7-.65-2.43s-1.07-1.3-1.92-1.71Z"/>
    <path class="cls-1" d="M607.2,867.47c.89.71,2.11,1.06,3.65,1.06s2.81-.35,3.72-1.06c.91-.71,1.36-1.7,1.36-2.96s-.47-2.25-1.41-2.96-2.17-1.06-3.68-1.06-2.68.35-3.61,1.06-1.39,1.71-1.39,3.01.45,2.21,1.34,2.91Z"/>
    <path class="cls-1" d="M615.32,874.92c-1.09-.83-2.58-1.25-4.46-1.25s-3.32.42-4.42,1.25c-1.1.83-1.64,1.94-1.64,3.33,0,1.48.55,2.64,1.64,3.47,1.09.83,2.57,1.25,4.42,1.25s3.37-.42,4.46-1.25,1.64-1.99,1.64-3.47c0-1.39-.55-2.5-1.64-3.33Z"/>
  </g>
</svg>